<?xml version="1.0" encoding="UTF-8" standalone="no"?>
<!-- Generator: Adobe Illustrator 24.1.0, SVG Export Plug-In . SVG Version: 6.00 Build 0)  -->

<svg
   fill="#ff1493"
   version="1.1"
   id="Layer_1"
   x="0px"
   y="0px"
   viewBox="0 0 320 320"
   xml:space="preserve"
   sodipodi:docname="email.svg"
   width="320"
   height="320"
   inkscape:version="1.3.2 (091e20ef0f, 2023-11-25)"
   xmlns:inkscape="http://www.inkscape.org/namespaces/inkscape"
   xmlns:sodipodi="http://sodipodi.sourceforge.net/DTD/sodipodi-0.dtd"
   xmlns="http://www.w3.org/2000/svg"
   xmlns:svg="http://www.w3.org/2000/svg"><defs
   id="defs1">
	
</defs><sodipodi:namedview
   id="namedview1"
   pagecolor="#ffffff"
   bordercolor="#666666"
   borderopacity="1.0"
   inkscape:showpageshadow="2"
   inkscape:pageopacity="0.0"
   inkscape:pagecheckerboard="0"
   inkscape:deskcolor="#d1d1d1"
   inkscape:zoom="0.63943444"
   inkscape:cx="173.5909"
   inkscape:cy="204.86854"
   inkscape:window-width="959"
   inkscape:window-height="1062"
   inkscape:window-x="0"
   inkscape:window-y="18"
   inkscape:window-maximized="1"
   inkscape:current-layer="Layer_1" />
<style
   type="text/css"
   id="style1">
	.st0{fill:#FFFFFF;stroke:#FF1493;stroke-width:2;stroke-miterlimit:10;}
</style>
<path
   id="ellipse1"
   style="fill:#ff1493;fill-opacity:1"
   class="st0"
   d="M 160,5.9486596 A 154.05134,154.05247 0 0 0 5.9486598,160.00572 154.05134,154.05247 0 0 0 160,314.05134 154.05134,154.05247 0 0 0 314.05134,160.00572 154.05134,154.05247 0 0 0 160,5.9486596 Z M 74.79743,82.393724 h 170.40516 c 12.03872,0 21.72245,9.389218 21.72245,21.061866 v 113.08882 c 0,11.67264 -9.68373,21.0733 -21.72245,21.0733 H 74.79743 c -12.038756,0 -21.72246,-9.40066 -21.72246,-21.0733 V 103.45559 c 0,-11.672648 9.683704,-21.061866 21.72246,-21.061866 z" />

<path
   d="M 246.9937,82.393724 H 73.006302 c -10.874213,0 -19.936056,8.786263 -19.936056,20.501286 v 114.22141 c 0,11.12927 9.061843,20.50129 19.936056,20.50129 H 246.9937 c 10.87421,0 19.93605,-8.78626 19.93605,-20.50129 V 102.30925 C 266.32563,91.179987 257.86791,82.393724 246.9937,82.393724 Z m 9.06185,134.136956 c 0,5.27176 -4.22887,9.37201 -9.06185,9.37201 H 73.006302 c -4.832983,0 -9.061844,-4.10025 -9.061844,-9.37201 V 102.30925 c 0,-5.271753 4.228861,-9.37201 9.061844,-9.37201 H 246.9937 c 4.83298,0 9.06185,4.100257 9.06185,9.37201 z M 246.9937,104.06651 c 2.41649,2.343 2.41649,5.85751 0,7.61476 0,0 0,0 0,0 l -47.12158,48.03157 45.30921,47.44582 c 1.81237,2.34301 1.81237,5.85751 0,7.61476 -2.41649,2.343 -5.43711,2.343 -7.8536,0 l -45.30921,-47.44581 -13.29071,13.47226 c -10.87422,10.54352 -27.78965,10.54352 -38.66387,0 l -13.2907,-13.47226 -45.309218,47.44581 c -1.812368,2.343 -5.437105,2.343 -7.853598,0 -2.416491,-2.343 -2.416491,-5.8575 0,-7.61476 L 118.91964,159.71284 71.798056,112.26702 c -2.416491,-2.343 -2.416491,-5.85751 0,-7.61476 2.416492,-1.75725 5.437106,-2.34301 7.853598,0 l 67.661766,69.1186 c 6.64535,6.44326 16.91544,6.44326 22.95667,0 l 67.66177,-69.1186 c 3.62473,-2.92876 6.64534,-2.92876 9.06184,-0.58575 z"
   id="path2"
   style="stroke-width:5.94866" /></svg>
